<?xml version="1.0" encoding="UTF-8"?>
<svg width="34px" height="52px" viewBox="0 0 34 52" version="1.1" xmlns="http://www.w3.org/2000/svg" xmlns:xlink="http://www.w3.org/1999/xlink">
    <title>Combined Shape</title>
    <g id="Page-1" stroke="none" stroke-width="1" fill="none" fill-rule="evenodd">
        <path d="M23,0 C27.418278,0 31,3.581722 31,8 L31,12 C31,13.786942 30.4141226,15.437045 29.4239784,16.7686986 C32.1290818,18.0504532 34,20.8067384 34,24 L34,40 C34,43.3570082 31.9322854,46.2310757 29.0009677,47.4180912 L29,50 C29,51.1045695 28.1045695,52 27,52 C25.8954305,52 25,51.1045695 25,50 L25,48 L9,48 L9,50 C9,51.1045695 8.1045695,52 7,52 C5.8954305,52 5,51.1045695 5,50 L5.0000295,47.4184949 C2.06818353,46.2317275 0,43.3573888 0,40 L0,24 C0,20.8144037 1.86420399,18.0571268 4.57792169,16.7711044 C3.5864653,15.4387005 3,13.7878384 3,12 L3,8 C3,3.581722 6.581722,0 11,0 L23,0 Z M10.937,19.999 L8.02491723,19.9998448 L7.89738775,20.0012779 C5.73245804,20.0552828 4,21.8288977 4,24 L4,40 C4,42.209139 5.790861,44 8,44 L26,44 C28.209139,44 30,42.209139 30,40 L30,24 C30,21.790861 28.209139,19.9998448 26,19.9998448 L23.062216,19.9997631 C23.041496,19.9999209 23.0207572,20 23,20 L11,20 L10.937,19.999 Z M24.9031746,26.4126894 C25.6842232,27.193738 25.6842232,28.4600679 24.9031746,29.2411165 L16.4178932,37.7263979 C16.0890307,38.0552605 15.6741348,38.2456546 15.2456548,38.2975802 L15.0844795,38.3105617 L14.9228798,38.3105617 C14.4382927,38.2910895 13.9594365,38.0963683 13.5894661,37.7263979 L9.34682541,33.4837572 C8.56577682,32.7027086 8.56577682,31.4363787 9.34682541,30.6553301 C10.127874,29.8742815 11.3942039,29.8742815 12.1752525,30.6553301 L15.003,33.483 L22.0747475,26.4126894 C22.8557961,25.6316408 24.122126,25.6316408 24.9031746,26.4126894 Z M23,4 L11,4 C8.790861,4 7,5.790861 7,8 L7,12 C7,14.209139 8.790861,16 11,16 L23,16 C25.209139,16 27,14.209139 27,12 L27,8 C27,5.790861 25.209139,4 23,4 Z M22,8 C23.1045695,8 24,8.8954305 24,10 C24,11.1045695 23.1045695,12 22,12 C20.8954305,12 20,11.1045695 20,10 C20,8.8954305 20.8954305,8 22,8 Z M12,8 C13.1045695,8 14,8.8954305 14,10 C14,11.1045695 13.1045695,12 12,12 C10.8954305,12 10,11.1045695 10,10 C10,8.8954305 10.8954305,8 12,8 Z" id="Combined-Shape" fill="#000000" fill-rule="nonzero"></path>
    </g>
</svg>